<svg id="Capa_1" enable-background="new 0 0 512 512" height="512" viewBox="0 0 512 512" width="512" xmlns="http://www.w3.org/2000/svg"><g><path fill="#ffffff" d="m332 276h-152c-11.046 0-20 8.954-20 20s8.954 20 20 20h152c11.046 0 20-8.954 20-20s-8.954-20-20-20z"/><path fill="#ffffff" d="m332 196h-152c-11.046 0-20 8.954-20 20s8.954 20 20 20h152c11.046 0 20-8.954 20-20s-8.954-20-20-20z"/><path fill="#ffffff" d="m452 156h-23.44c-8.256-23.278-30.487-40-56.56-40h-232c-26.073 0-48.303 16.722-56.56 40h-23.44c-33.084 0-60 26.916-60 60v40c0 49.327 35.901 90.421 82.945 98.539 7.83 24.036 30.44 41.461 57.055 41.461h232c26.615 0 49.225-17.425 57.055-41.461 47.044-8.118 82.945-49.212 82.945-98.539v-40c0-33.084-26.916-60-60-60zm-412 100v-40c0-11.028 8.972-20 20-20h20v116.56c-23.278-8.256-40-30.487-40-56.56zm332 100h-232c-11.028 0-20-8.972-20-20v-160c0-11.028 8.972-20 20-20h232c11.028 0 20 8.972 20 20v160c0 11.028-8.972 20-20 20zm100-100c0 26.073-16.722 48.304-40 56.56v-116.56h20c11.028 0 20 8.972 20 20z"/></g></svg>